# xmcd CD database file
#
# Track frame offsets:
#	150
#	11749
#	25564
#	41126
#	53403
#	64232
#	77628
#	89939
#	101872
#	119813
#	134165
#	143313
#
# Disc length: 2061 seconds
#
# Revision: 0
# Processed by: cddbd v1.5.1PL2 Copyright (c) Steve Scherf et al.
# Submitted via: CDex 1.51
#
DISCID=aa080b0c
DTITLE=Jim Eanes - In His Arms
DYEAR=2004
DGENRE=Country
TTITLE0=Welcome In
TTITLE1=Little House Of Prayer
TTITLE2=In His Arms I Not Afraid
TTITLE3=The Coming Of Our Lord
TTITLE4=Jesus Is My Guiding Light
TTITLE5=Mother Taught Me How To Pray
TTITLE6=Crown Of Thorns
TTITLE7=Take Me Home Blessed Jesus
TTITLE8=When They Ring Those Golden Bells
TTITLE9=Old Satan
TTITLE10=The Candle Song
TTITLE11=Let Him Lead You
EXTD=YEAR: 2004
EXTT0=
EXTT1=
EXTT2=
EXTT3=
EXTT4=
EXTT5=
EXTT6=
EXTT7=
EXTT8=
EXTT9=
EXTT10=
EXTT11=
PLAYORDER=
